<?xml version="1.0" encoding="iso-8859-1"?><!-- Generator: Adobe Illustrator 22.1.0, SVG Export Plug-In . SVG Version: 6.00 Build 0)  --><svg xmlns="http://www.w3.org/2000/svg" xmlns:xlink="http://www.w3.org/1999/xlink" viewBox="0 0 100 100" width="256px" height="256px"><g><g><path d="M14,85c-3.434,0-3.907-3.364-3.907-7L10,23.349c0-4.074,3.259-7.388,7.265-7.388h27.471c4.006,0,7.265,3.245,7.265,7.234V25.5c0,0.806,0.655,1.461,1.461,1.461h27.078c1.908,0,3.461,1.553,3.461,3.461V37h-2v-6.578c0-0.806-0.655-1.461-1.461-1.461H53.461C51.553,28.961,50,27.408,50,25.5v-2.305c0-2.886-2.361-5.234-5.265-5.234H17.265c-2.903,0-5.265,2.417-5.265,5.388v6.475l0.093,48.174C12.093,83,13.24,83,14,83V85z"/></g></g><g><path d="M15.5,31.961c-0.276,0-0.5-0.224-0.5-0.5v-4.956c0-3.057,2.399-5.544,5.349-5.544H38.5c0.276,0,0.5,0.224,0.5,0.5s-0.224,0.5-0.5,0.5H20.349C17.951,21.961,16,24,16,26.505v4.956C16,31.737,15.776,31.961,15.5,31.961z"/></g><g><path d="M46.542,27.047c-0.276,0-0.5-0.224-0.5-0.5c0-2.506-1.951-4.545-4.349-4.545c-0.276,0-0.5-0.224-0.5-0.5s0.224-0.5,0.5-0.5c2.949,0,5.349,2.487,5.349,5.545C47.042,26.823,46.818,27.047,46.542,27.047z"/></g><g><path d="M84.917,85H13.75c-0.553,0-1-0.447-1-1s0.447-1,1-1c0.272,0,0.395-0.085,0.486-0.176c0.793-0.797,0.779-3.841,0.768-6.785L15,74.75V37c0-0.552,0.447-1,1-1h72c0.553,0,1,0.448,1,1v43.917C89,83.168,87.168,85,84.917,85z M16.42,83h68.497C86.065,83,87,82.065,87,80.917V38H17l0.004,38.031C17.017,79.047,17.026,81.426,16.42,83z"/></g><g><path d="M49.5,53h-24c-0.276,0-0.5-0.224-0.5-0.5v-10c0-0.276,0.224-0.5,0.5-0.5h24c0.276,0,0.5,0.224,0.5,0.5v10C50,52.776,49.776,53,49.5,53z M26,52h23v-9H26V52z"/></g></svg>