<?xml version="1.0" encoding="utf-8"?><!-- Generator: Adobe Illustrator 21.0.0, SVG Export Plug-In . SVG Version: 6.00 Build 0)  --><svg xmlns="http://www.w3.org/2000/svg" xmlns:xlink="http://www.w3.org/1999/xlink" viewBox="0 0 100 100" width="256px" height="256px"><g id="bin"></g><g id="full_bin"></g><g id="bookmark"></g><g id="edit"></g><g id="pen"></g><g id="search"></g><g id="plus"></g><g id="multiple"></g><g id="arrow_top"></g><g id="arrow_bottom"></g><g id="minus"></g><g id="synchronize"></g><g id="refresh_1_"></g><g id="left_arrow"></g><g id="scale"></g><g id="right_arrow"></g><g id="expand"></g><g id="play"></g><g id="back"></g><g id="next"></g><g id="upload"></g><g id="download"></g><g id="shared"></g><g id="checked"></g><g id="file"></g><g id="zip_file"></g><g id="document_file"><path d="M78.921,30.307H67.436c-5.246,0-9.515-4.268-9.515-9.515V9.307c0-0.276,0.224-0.5,0.5-0.5s0.5,0.224,0.5,0.5v11.485c0,4.695,3.819,8.515,8.515,8.515h11.485c0.276,0,0.5,0.224,0.5,0.5S79.198,30.307,78.921,30.307z"/><path d="M70.189,89.307H26.654c-5.366,0-9.732-4.366-9.732-9.732V18.04c0-5.367,4.366-9.732,9.732-9.732h32.021c0.266,0,0.52,0.105,0.707,0.293l20.247,20.248c0.188,0.188,0.293,0.442,0.293,0.707v50.02C79.921,84.941,75.555,89.307,70.189,89.307z M26.654,10.307c-4.264,0-7.732,3.469-7.732,7.732v61.535c0,4.264,3.469,7.732,7.732,7.732h43.535c4.264,0,7.732-3.469,7.732-7.732V29.969L58.26,10.307H26.654z"/><path d="M73.421,48.307c-0.276,0-0.5-0.224-0.5-0.5v-3c0-0.276,0.224-0.5,0.5-0.5s0.5,0.224,0.5,0.5v3C73.921,48.083,73.698,48.307,73.421,48.307z"/><path d="M73.421,56.307c-0.276,0-0.5-0.224-0.5-0.5v-6c0-0.276,0.224-0.5,0.5-0.5s0.5,0.224,0.5,0.5v6C73.921,56.083,73.698,56.307,73.421,56.307z"/><path d="M66.263,83.307H30.579c-4.223,0-7.658-3.45-7.658-7.689V22.955c0-2.458,1.193-4.79,3.193-6.238c1.31-0.949,2.854-1.451,4.465-1.451c0.276,0,0.5,0.224,0.5,0.5s-0.224,0.5-0.5,0.5c-1.398,0-2.74,0.436-3.879,1.261c-1.74,1.262-2.779,3.291-2.779,5.429v52.663c0,3.688,2.987,6.689,6.658,6.689h35.684c3.671,0,6.658-3.001,6.658-6.689V57.807c0-0.276,0.224-0.5,0.5-0.5s0.5,0.224,0.5,0.5v17.811C73.921,79.857,70.486,83.307,66.263,83.307z"/><path d="M49.421,52.307h-21c-0.276,0-0.5-0.224-0.5-0.5s0.224-0.5,0.5-0.5h21c0.276,0,0.5,0.224,0.5,0.5S49.698,52.307,49.421,52.307z"/><g><path d="M41.421,59.307h-13c-0.276,0-0.5-0.224-0.5-0.5s0.224-0.5,0.5-0.5h13c0.276,0,0.5,0.224,0.5,0.5S41.698,59.307,41.421,59.307z"/><path d="M68.421,59.307h-24c-0.276,0-0.5-0.224-0.5-0.5s0.224-0.5,0.5-0.5h24c0.276,0,0.5,0.224,0.5,0.5S68.698,59.307,68.421,59.307z"/></g><g><path d="M59.421,66.307h-11c-0.276,0-0.5-0.224-0.5-0.5s0.224-0.5,0.5-0.5h11c0.276,0,0.5,0.224,0.5,0.5S59.698,66.307,59.421,66.307z"/><path d="M69.421,66.307h-8c-0.276,0-0.5-0.224-0.5-0.5s0.224-0.5,0.5-0.5h8c0.276,0,0.5,0.224,0.5,0.5S69.698,66.307,69.421,66.307z"/><path d="M45.421,66.307h-17c-0.276,0-0.5-0.224-0.5-0.5s0.224-0.5,0.5-0.5h17c0.276,0,0.5,0.224,0.5,0.5S45.698,66.307,45.421,66.307z"/></g><g><path d="M68.421,73.307h-14c-0.276,0-0.5-0.224-0.5-0.5s0.224-0.5,0.5-0.5h14c0.276,0,0.5,0.224,0.5,0.5S68.698,73.307,68.421,73.307z"/><path d="M52.421,73.307h-24c-0.276,0-0.5-0.224-0.5-0.5s0.224-0.5,0.5-0.5h24c0.276,0,0.5,0.224,0.5,0.5S52.698,73.307,52.421,73.307z"/></g><path d="M49.421,45.307h-21c-0.276,0-0.5-0.224-0.5-0.5s0.224-0.5,0.5-0.5h21c0.276,0,0.5,0.224,0.5,0.5S49.698,45.307,49.421,45.307z"/><path d="M68.421,54.307h-12c-0.276,0-0.5-0.224-0.5-0.5s0.224-0.5,0.5-0.5h11.5v-15h-15v13.5c0,0.276-0.224,0.5-0.5,0.5s-0.5-0.224-0.5-0.5v-14c0-0.276,0.224-0.5,0.5-0.5h16c0.276,0,0.5,0.224,0.5,0.5v16C68.921,54.083,68.698,54.307,68.421,54.307z"/><path d="M49.421,38.307h-21c-0.276,0-0.5-0.224-0.5-0.5s0.224-0.5,0.5-0.5h21c0.276,0,0.5,0.224,0.5,0.5S49.698,38.307,49.421,38.307z"/></g><g id="image_file"></g><g id="exel_file"></g><g id="pdf_file"></g><g id="folder"></g><g id="clipboard"></g><g id="adress"></g><g id="news"></g><g id="box"></g><g id="wooden_box"></g><g id="calendar"></g><g id="clock"></g><g id="hourglass"></g><g id="envelope"></g><g id="mail_plane"></g><g id="note"></g><g id="malbox"></g><g id="key"></g><g id="lock_close"></g><g id="lock_open"></g><g id="toolbox"></g><g id="suitcase"></g><g id="Idea"></g><g id="dashboard"></g><g id="home"></g><g id="chat"></g><g id="phone"></g><g id="iphone"></g><g id="monitor"></g><g id="laptop"></g><g id="window"></g><g id="html_window"></g><g id="router"></g><g id="safe"></g><g id="user_male"></g><g id="user_female"></g><g id="camera"></g><g id="compass"></g><g id="star"></g><g id="picture"></g><g id="preferences"></g><g id="settings"></g><g id="options"></g><g id="printer"></g><g id="save"></g><g id="help"></g><g id="marker"></g><g id="map"></g><g id="flag_1_"></g><g id="shop"></g><g id="cart"></g><g id="wallet"></g><g id="cards"></g><g id="price"></g><g id="shopping_bag"></g><g id="dollars"></g><g id="basket"></g><g id="delivery"></g><g id="bill"></g><g id="cash_machine"></g><g id="bill_machine"></g><g id="calculator"></g><g id="purse"></g><g id="geometry"></g><g id="setsquare"></g><g id="coins"></g><g id="cert"></g><g id="goal"></g><g id="lab"></g><g id="cup"></g><g id="money"></g><g id="servers"></g><g id="diamond"></g><g id="mouse"></g></svg>